<?xml version="1.0" standalone="no"?><!DOCTYPE svg PUBLIC "-//W3C//DTD SVG 1.1//EN" "http://www.w3.org/Graphics/SVG/1.1/DTD/svg11.dtd"><svg t="1743399814403" class="icon" viewBox="0 0 1024 1024" version="1.1" xmlns="http://www.w3.org/2000/svg" p-id="4570" xmlns:xlink="http://www.w3.org/1999/xlink" width="200" height="200"><path d="M512 12c276.142 0 500 223.858 500 500s-223.858 500-500 500S12 788.142 12 512 235.858 12 512 12z m0.002 198.718c-124.03 0-224.576 100.147-224.576 223.684 0 76.621 38.678 144.244 97.647 184.556l1.782 1.206-3.157 1.402c-90.811 40.93-157.358 123.965-172.979 223.252 79.586 72.013 185.289 115.9 301.283 115.9 115.993 0 221.695-43.887 301.28-115.906-15.618-99.28-82.165-182.316-172.977-223.246l-3.157-1.402 1.782-1.206c58.97-40.312 97.647-107.935 97.647-184.556 0-123.537-100.546-223.684-224.575-223.684z m-80.678 142.857c14.853 0 26.893 12.04 26.893 26.893v17.643l-0.004 0.445c-0.237 14.647-12.185 26.448-26.889 26.448-14.852 0-26.892-12.04-26.892-26.893v-17.643l0.003-0.445c0.238-14.647 12.186-26.448 26.89-26.448z m161.355 0c14.852 0 26.892 12.04 26.892 26.893v17.643l-0.003 0.445c-0.238 14.647-12.185 26.448-26.89 26.448-14.851 0-26.892-12.04-26.892-26.893v-17.643l0.004-0.445c0.238-14.647 12.185-26.448 26.889-26.448z" fill="#D8D8D8" p-id="4571"></path></svg>