<svg t="1743168874987" class="icon" viewBox="0 0 1024 1024" version="1.1" xmlns="http://www.w3.org/2000/svg" p-id="3196" xmlns:xlink="http://www.w3.org/1999/xlink" width="200" height="200">
  <!-- 浅色区域，添加类名 'light-fill' -->
  <path class="light-fill" d="M944.768 697.6h-368c-8.384 0-15.168-9.856-15.168-22.016v-51.84c0-12.096 6.784-22.016 15.168-22.016h368c8.448 0 15.232 9.92 15.232 22.016v51.904c0 12.096-6.784 21.952-15.232 21.952z m0 131.264h-368c-8.384 0-15.168-9.856-15.168-22.016v-51.904c0-12.224 6.784-22.016 15.168-22.016h368c8.448 0 15.232 9.856 15.232 22.016v51.904c0 12.16-6.784 22.016-15.232 22.016z m0 131.136h-368c-8.384 0-15.168-9.856-15.168-22.016v-51.904c0-12.096 6.784-22.016 15.168-22.016h368c8.448 0 15.232 9.856 15.232 22.016v51.904c0 12.16-6.784 22.016-15.232 22.016zM550.016 544.064h65.536a120.32 120.32 0 0 0 4.416-32 122.496 122.496 0 0 0-136.32-121.6 122.88 122.88 0 0 0-107.584 107.648 122.56 122.56 0 0 0 121.6 136.384v-37.888a52.352 52.352 0 0 1 52.352-52.544z" fill="#DCE0F2" p-id="3197"></path>
  <!-- 深色区域，添加类名 'dark-fill' -->
  <path class="dark-fill" d="M310.208 512.064a187.648 187.648 0 0 1 187.392-187.456 187.712 187.712 0 0 1 184.64 219.456h172.672a338.432 338.432 0 0 0-1.344-75.52l52.416-40.64a54.912 54.912 0 0 0 17.728-73.6l-76.48-132.544a54.976 54.976 0 0 0-72.704-21.44l-61.184 25.024a356.288 356.288 0 0 0-75.392-43.392l-8.96-65.664A54.784 54.784 0 0 0 574.208 64H420.992a54.592 54.592 0 0 0-54.784 52.288l-9.024 65.664a361.088 361.088 0 0 0-75.392 43.392l-61.312-25.024a54.784 54.784 0 0 0-72.576 21.44L71.36 354.496a54.848 54.848 0 0 0 17.984 73.472l52.224 40.64a348.544 348.544 0 0 0 0 87.04l-52.352 40.448a54.784 54.784 0 0 0-17.792 73.6l76.48 132.608c7.424 12.608 19.2 21.76 33.408 25.6a54.208 54.208 0 0 0 39.232-4.352l61.248-25.024c23.04 17.344 48.384 31.872 75.392 43.392l9.024 65.728a54.72 54.72 0 0 0 54.784 52.352h76.48v-260.48a187.584 187.584 0 0 1-187.264-187.456z" fill="#9A8CD5" p-id="3198"></path>
</svg>
